<?xml version="1.0" encoding="UTF-8" standalone="no"?>
<!DOCTYPE svg PUBLIC "-//W3C//DTD SVG 1.1//EN"
 "http://www.w3.org/Graphics/SVG/1.1/DTD/svg11.dtd">
<!-- Generated by graphviz version 2.40.1 (20161225.0304)
 -->
<!-- Title: %3 Pages: 1 -->
<svg width="634pt" height="152pt"
 viewBox="0.00 0.00 634.18 152.00" xmlns="http://www.w3.org/2000/svg" xmlns:xlink="http://www.w3.org/1999/xlink">
<g id="graph0" class="graph" transform="scale(1 1) rotate(0) translate(4 148)">
<title>%3</title>
<polygon fill="#ffffff" stroke="transparent" points="-4,4 -4,-148 630.1788,-148 630.1788,4 -4,4"/>
<!-- input1 -->
<g id="node1" class="node">
<title>input1</title>
<ellipse fill="none" stroke="#ffffff" cx="27" cy="-126" rx="27" ry="18"/>
<text text-anchor="start" x="24.5" y="-122.3" font-family="Times-Roman" font-size="14.00" fill="#000000"> </text>
</g>
<!-- input01 -->
<g id="node5" class="node">
<title>input01</title>
<ellipse fill="none" stroke="#000000" cx="156.3968" cy="-126" rx="36.2938" ry="18"/>
<text text-anchor="start" x="136.3968" y="-122.3" font-family="Times-Roman" font-size="14.00" fill="#000000">f(x)=x</text>
</g>
<!-- input1&#45;&gt;input01 -->
<g id="edge1" class="edge">
<title>input1&#45;&gt;input01</title>
<path fill="none" stroke="#000000" d="M54.1258,-126C70.2582,-126 91.1601,-126 109.8595,-126"/>
<polygon fill="#000000" stroke="#000000" points="109.9773,-129.5001 119.9772,-126 109.9772,-122.5001 109.9773,-129.5001"/>
<text text-anchor="start" x="72" y="-130.8" font-family="Times-Roman" font-size="14.00" fill="#000000">x</text>
<text text-anchor="start" x="79" y="-130.8" font-family="Times-Roman" baseline-shift="super" font-size="14.00" fill="#000000">(α)</text>
<text text-anchor="start" x="95" y="-130.8" font-family="Times-Roman" baseline-shift="sub" font-size="14.00" fill="#000000">1</text>
</g>
<!-- input2 -->
<g id="node2" class="node">
<title>input2</title>
<ellipse fill="none" stroke="#ffffff" cx="27" cy="-72" rx="27" ry="18"/>
<text text-anchor="start" x="24.5" y="-68.3" font-family="Times-Roman" font-size="14.00" fill="#000000"> </text>
</g>
<!-- input02 -->
<g id="node6" class="node">
<title>input02</title>
<ellipse fill="none" stroke="#000000" cx="156.3968" cy="-72" rx="36.2938" ry="18"/>
<text text-anchor="start" x="136.3968" y="-68.3" font-family="Times-Roman" font-size="14.00" fill="#000000">f(x)=x</text>
</g>
<!-- input2&#45;&gt;input02 -->
<g id="edge2" class="edge">
<title>input2&#45;&gt;input02</title>
<path fill="none" stroke="#000000" d="M54.1258,-72C70.2582,-72 91.1601,-72 109.8595,-72"/>
<polygon fill="#000000" stroke="#000000" points="109.9773,-75.5001 119.9772,-72 109.9772,-68.5001 109.9773,-75.5001"/>
<text text-anchor="start" x="72" y="-76.8" font-family="Times-Roman" font-size="14.00" fill="#000000">x</text>
<text text-anchor="start" x="79" y="-76.8" font-family="Times-Roman" baseline-shift="super" font-size="14.00" fill="#000000">(α)</text>
<text text-anchor="start" x="95" y="-76.8" font-family="Times-Roman" baseline-shift="sub" font-size="14.00" fill="#000000">2</text>
</g>
<!-- input3 -->
<g id="node3" class="node">
<title>input3</title>
<ellipse fill="none" stroke="#ffffff" cx="27" cy="-18" rx="27" ry="18"/>
<text text-anchor="start" x="24.5" y="-14.3" font-family="Times-Roman" font-size="14.00" fill="#000000"> </text>
</g>
<!-- input03 -->
<g id="node7" class="node">
<title>input03</title>
<ellipse fill="none" stroke="#000000" cx="156.3968" cy="-18" rx="36.2938" ry="18"/>
<text text-anchor="start" x="136.3968" y="-14.3" font-family="Times-Roman" font-size="14.00" fill="#000000">f(x)=x</text>
</g>
<!-- input3&#45;&gt;input03 -->
<g id="edge3" class="edge">
<title>input3&#45;&gt;input03</title>
<path fill="none" stroke="#000000" d="M54.1258,-18C70.2582,-18 91.1601,-18 109.8595,-18"/>
<polygon fill="#000000" stroke="#000000" points="109.9773,-21.5001 119.9772,-18 109.9772,-14.5001 109.9773,-21.5001"/>
<text text-anchor="start" x="72" y="-22.8" font-family="Times-Roman" font-size="14.00" fill="#000000">x</text>
<text text-anchor="start" x="79" y="-22.8" font-family="Times-Roman" baseline-shift="super" font-size="14.00" fill="#000000">(α)</text>
<text text-anchor="start" x="95" y="-22.8" font-family="Times-Roman" baseline-shift="sub" font-size="14.00" fill="#000000">3</text>
</g>
<!-- finalout -->
<g id="node4" class="node">
<title>finalout</title>
<ellipse fill="none" stroke="#ffffff" cx="599.1788" cy="-72" rx="27" ry="18"/>
<text text-anchor="start" x="596.6788" y="-68.3" font-family="Times-Roman" font-size="14.00" fill="#000000"> </text>
</g>
<!-- input11 -->
<g id="node8" class="node">
<title>input11</title>
<ellipse fill="none" stroke="#000000" cx="311.3899" cy="-126" rx="41.6928" ry="18"/>
<text text-anchor="start" x="287.3899" y="-122.3" font-family="Times-Roman" font-size="14.00" fill="#000000">tanh(Σ)</text>
</g>
<!-- input01&#45;&gt;input11 -->
<g id="edge4" class="edge">
<title>input01&#45;&gt;input11</title>
<path fill="none" stroke="#000000" d="M193.128,-126C212.9889,-126 237.8435,-126 259.6348,-126"/>
<polygon fill="#000000" stroke="#000000" points="259.7256,-129.5001 269.7256,-126 259.7255,-122.5001 259.7256,-129.5001"/>
<text text-anchor="start" x="210.7935" y="-130.8" font-family="Times-Roman" font-size="14.00" fill="#000000">W</text>
<text text-anchor="start" x="223.7935" y="-130.8" font-family="Times-Roman" baseline-shift="super" font-size="14.00" fill="#000000">10</text>
<text text-anchor="start" x="237.7935" y="-130.8" font-family="Times-Roman" baseline-shift="sub" font-size="14.00" fill="#000000">11</text>
</g>
<!-- input12 -->
<g id="node9" class="node">
<title>input12</title>
<ellipse fill="none" stroke="#000000" cx="311.3899" cy="-72" rx="41.6928" ry="18"/>
<text text-anchor="start" x="287.3899" y="-68.3" font-family="Times-Roman" font-size="14.00" fill="#000000">tanh(Σ)</text>
</g>
<!-- input02&#45;&gt;input12 -->
<g id="edge5" class="edge">
<title>input02&#45;&gt;input12</title>
<path fill="none" stroke="#000000" d="M193.128,-72C212.9889,-72 237.8435,-72 259.6348,-72"/>
<polygon fill="#000000" stroke="#000000" points="259.7256,-75.5001 269.7256,-72 259.7255,-68.5001 259.7256,-75.5001"/>
<text text-anchor="start" x="210.7935" y="-76.8" font-family="Times-Roman" font-size="14.00" fill="#000000">W</text>
<text text-anchor="start" x="223.7935" y="-76.8" font-family="Times-Roman" baseline-shift="super" font-size="14.00" fill="#000000">10</text>
<text text-anchor="start" x="237.7935" y="-76.8" font-family="Times-Roman" baseline-shift="sub" font-size="14.00" fill="#000000">22</text>
</g>
<!-- input13 -->
<g id="node10" class="node">
<title>input13</title>
<ellipse fill="none" stroke="#000000" cx="311.3899" cy="-18" rx="41.6928" ry="18"/>
<text text-anchor="start" x="287.3899" y="-14.3" font-family="Times-Roman" font-size="14.00" fill="#000000">tanh(Σ)</text>
</g>
<!-- input03&#45;&gt;input13 -->
<g id="edge6" class="edge">
<title>input03&#45;&gt;input13</title>
<path fill="none" stroke="#000000" d="M193.128,-18C212.9889,-18 237.8435,-18 259.6348,-18"/>
<polygon fill="#000000" stroke="#000000" points="259.7256,-21.5001 269.7256,-18 259.7255,-14.5001 259.7256,-21.5001"/>
<text text-anchor="start" x="210.7935" y="-22.8" font-family="Times-Roman" font-size="14.00" fill="#000000">W</text>
<text text-anchor="start" x="223.7935" y="-22.8" font-family="Times-Roman" baseline-shift="super" font-size="14.00" fill="#000000">10</text>
<text text-anchor="start" x="237.7935" y="-22.8" font-family="Times-Roman" baseline-shift="sub" font-size="14.00" fill="#000000">33</text>
</g>
<!-- output -->
<g id="node11" class="node">
<title>output</title>
<ellipse fill="none" stroke="#000000" cx="471.5825" cy="-72" rx="41.6928" ry="18"/>
<text text-anchor="start" x="447.5825" y="-68.3" font-family="Times-Roman" font-size="14.00" fill="#000000">tanh(Σ)</text>
</g>
<!-- input11&#45;&gt;output -->
<g id="edge7" class="edge">
<title>input11&#45;&gt;output</title>
<path fill="none" stroke="#000000" d="M344.5819,-114.8112C369.0417,-106.5659 402.5121,-95.2832 428.9518,-86.3706"/>
<polygon fill="#000000" stroke="#000000" points="430.3494,-89.593 438.7074,-83.082 428.1133,-82.9598 430.3494,-89.593"/>
<text text-anchor="start" x="370.9862" y="-109.8" font-family="Times-Roman" font-size="14.00" fill="#000000">W</text>
<text text-anchor="start" x="383.9862" y="-109.8" font-family="Times-Roman" baseline-shift="super" font-size="14.00" fill="#000000">21</text>
<text text-anchor="start" x="397.9862" y="-109.8" font-family="Times-Roman" baseline-shift="sub" font-size="14.00" fill="#000000">11</text>
</g>
<!-- input12&#45;&gt;output -->
<g id="edge8" class="edge">
<title>input12&#45;&gt;output</title>
<path fill="none" stroke="#000000" d="M353.0604,-72C373.3756,-72 398.0128,-72 419.5509,-72"/>
<polygon fill="#000000" stroke="#000000" points="419.8426,-75.5001 429.8426,-72 419.8426,-68.5001 419.8426,-75.5001"/>
<text text-anchor="start" x="370.9862" y="-76.8" font-family="Times-Roman" font-size="14.00" fill="#000000">W</text>
<text text-anchor="start" x="383.9862" y="-76.8" font-family="Times-Roman" baseline-shift="super" font-size="14.00" fill="#000000">21</text>
<text text-anchor="start" x="397.9862" y="-76.8" font-family="Times-Roman" baseline-shift="sub" font-size="14.00" fill="#000000">12</text>
</g>
<!-- input13&#45;&gt;output -->
<g id="edge9" class="edge">
<title>input13&#45;&gt;output</title>
<path fill="none" stroke="#000000" d="M344.5819,-29.1888C369.0417,-37.4341 402.5121,-48.7168 428.9518,-57.6294"/>
<polygon fill="#000000" stroke="#000000" points="428.1133,-61.0402 438.7074,-60.918 430.3494,-54.407 428.1133,-61.0402"/>
<text text-anchor="start" x="370.9862" y="-55.8" font-family="Times-Roman" font-size="14.00" fill="#000000">W</text>
<text text-anchor="start" x="383.9862" y="-55.8" font-family="Times-Roman" baseline-shift="super" font-size="14.00" fill="#000000">21</text>
<text text-anchor="start" x="397.9862" y="-55.8" font-family="Times-Roman" baseline-shift="sub" font-size="14.00" fill="#000000">13</text>
</g>
<!-- output&#45;&gt;finalout -->
<g id="edge10" class="edge">
<title>output&#45;&gt;finalout</title>
<path fill="none" stroke="#000000" d="M513.3623,-72C529.0704,-72 546.8083,-72 562.0634,-72"/>
<polygon fill="#000000" stroke="#000000" points="562.1725,-75.5001 572.1725,-72 562.1725,-68.5001 562.1725,-75.5001"/>
<text text-anchor="start" x="531.1788" y="-76.8" font-family="Times-Roman" font-size="14.00" fill="#000000">y</text>
<text text-anchor="start" x="538.1788" y="-76.8" font-family="Times-Roman" baseline-shift="super" font-size="14.00" fill="#000000">(α)</text>
</g>
</g>
</svg>
