<?xml version="1.0" encoding="UTF-8" standalone="no"?>
<!DOCTYPE svg PUBLIC "-//W3C//DTD SVG 1.1//EN"
 "http://www.w3.org/Graphics/SVG/1.1/DTD/svg11.dtd">
<!-- Generated by graphviz version 2.40.1 (20161225.0304)
 -->
<!-- Title: %3 Pages: 1 -->
<svg width="554pt" height="194pt"
 viewBox="0.00 0.00 554.18 194.00" xmlns="http://www.w3.org/2000/svg" xmlns:xlink="http://www.w3.org/1999/xlink">
<g id="graph0" class="graph" transform="scale(1 1) rotate(0) translate(4 190)">
<title>%3</title>
<polygon fill="#ffffff" stroke="transparent" points="-4,4 -4,-190 550.1788,-190 550.1788,4 -4,4"/>
<!-- input1 -->
<g id="node1" class="node">
<title>input1</title>
<ellipse fill="none" stroke="#ffffff" cx="27" cy="-83" rx="27" ry="18"/>
<text text-anchor="start" x="24.5" y="-79.3" font-family="Times-Roman" font-size="14.00" fill="#000000"> </text>
</g>
<!-- input01 -->
<g id="node5" class="node">
<title>input01</title>
<ellipse fill="none" stroke="#000000" cx="156.3968" cy="-83" rx="36.2938" ry="18"/>
<text text-anchor="start" x="136.3968" y="-79.3" font-family="Times-Roman" font-size="14.00" fill="#000000">f(x)=x</text>
</g>
<!-- input1&#45;&gt;input01 -->
<g id="edge1" class="edge">
<title>input1&#45;&gt;input01</title>
<path fill="none" stroke="#000000" d="M54.1258,-83C70.2582,-83 91.1601,-83 109.8595,-83"/>
<polygon fill="#000000" stroke="#000000" points="109.9773,-86.5001 119.9772,-83 109.9772,-79.5001 109.9773,-86.5001"/>
<text text-anchor="start" x="72" y="-87.8" font-family="Times-Roman" font-size="14.00" fill="#000000">x</text>
<text text-anchor="start" x="79" y="-87.8" font-family="Times-Roman" baseline-shift="super" font-size="14.00" fill="#000000">(α)</text>
<text text-anchor="start" x="95" y="-87.8" font-family="Times-Roman" baseline-shift="sub" font-size="14.00" fill="#000000">1</text>
</g>
<!-- input2 -->
<g id="node2" class="node">
<title>input2</title>
<ellipse fill="none" stroke="#ffffff" cx="27" cy="-168" rx="27" ry="18"/>
<text text-anchor="start" x="24.5" y="-164.3" font-family="Times-Roman" font-size="14.00" fill="#000000"> </text>
</g>
<!-- input02 -->
<g id="node6" class="node">
<title>input02</title>
<ellipse fill="none" stroke="#000000" cx="156.3968" cy="-168" rx="36.2938" ry="18"/>
<text text-anchor="start" x="136.3968" y="-164.3" font-family="Times-Roman" font-size="14.00" fill="#000000">f(x)=x</text>
</g>
<!-- input2&#45;&gt;input02 -->
<g id="edge2" class="edge">
<title>input2&#45;&gt;input02</title>
<path fill="none" stroke="#000000" d="M54.1258,-168C70.2582,-168 91.1601,-168 109.8595,-168"/>
<polygon fill="#000000" stroke="#000000" points="109.9773,-171.5001 119.9772,-168 109.9772,-164.5001 109.9773,-171.5001"/>
<text text-anchor="start" x="72" y="-172.8" font-family="Times-Roman" font-size="14.00" fill="#000000">x</text>
<text text-anchor="start" x="79" y="-172.8" font-family="Times-Roman" baseline-shift="super" font-size="14.00" fill="#000000">(α)</text>
<text text-anchor="start" x="95" y="-172.8" font-family="Times-Roman" baseline-shift="sub" font-size="14.00" fill="#000000">2</text>
</g>
<!-- input3 -->
<g id="node3" class="node">
<title>input3</title>
<ellipse fill="none" stroke="#ffffff" cx="27" cy="-29" rx="27" ry="18"/>
<text text-anchor="start" x="24.5" y="-25.3" font-family="Times-Roman" font-size="14.00" fill="#000000"> </text>
</g>
<!-- input03 -->
<g id="node7" class="node">
<title>input03</title>
<ellipse fill="none" stroke="#000000" cx="156.3968" cy="-29" rx="36.2938" ry="18"/>
<text text-anchor="start" x="136.3968" y="-25.3" font-family="Times-Roman" font-size="14.00" fill="#000000">f(x)=x</text>
</g>
<!-- input3&#45;&gt;input03 -->
<g id="edge3" class="edge">
<title>input3&#45;&gt;input03</title>
<path fill="none" stroke="#000000" d="M54.1258,-29C70.2582,-29 91.1601,-29 109.8595,-29"/>
<polygon fill="#000000" stroke="#000000" points="109.9773,-32.5001 119.9772,-29 109.9772,-25.5001 109.9773,-32.5001"/>
<text text-anchor="start" x="72" y="-33.8" font-family="Times-Roman" font-size="14.00" fill="#000000">x</text>
<text text-anchor="start" x="79" y="-33.8" font-family="Times-Roman" baseline-shift="super" font-size="14.00" fill="#000000">(α)</text>
<text text-anchor="start" x="95" y="-33.8" font-family="Times-Roman" baseline-shift="sub" font-size="14.00" fill="#000000">3</text>
</g>
<!-- finalout -->
<g id="node4" class="node">
<title>finalout</title>
<ellipse fill="none" stroke="#ffffff" cx="519.1788" cy="-72" rx="27" ry="18"/>
<text text-anchor="start" x="516.6788" y="-68.3" font-family="Times-Roman" font-size="14.00" fill="#000000"> </text>
</g>
<!-- input11 -->
<g id="node8" class="node">
<title>input11</title>
<ellipse fill="none" stroke="#000000" cx="271.3899" cy="-72" rx="41.6928" ry="18"/>
<text text-anchor="start" x="247.3899" y="-68.3" font-family="Times-Roman" font-size="14.00" fill="#000000">tanh(Σ)</text>
</g>
<!-- input01&#45;&gt;input11 -->
<g id="edge4" class="edge">
<title>input01&#45;&gt;input11</title>
<path fill="none" stroke="#000000" d="M192.151,-79.5798C201.0598,-78.7276 210.7854,-77.7973 220.2762,-76.8894"/>
<polygon fill="#000000" stroke="#000000" points="220.8114,-80.3543 230.4327,-75.9179 220.1448,-73.3861 220.8114,-80.3543"/>
</g>
<!-- input12 -->
<g id="node9" class="node">
<title>input12</title>
<ellipse fill="none" stroke="#000000" cx="271.3899" cy="-134" rx="41.6928" ry="18"/>
<text text-anchor="start" x="247.3899" y="-130.3" font-family="Times-Roman" font-size="14.00" fill="#000000">tanh(Σ)</text>
</g>
<!-- input01&#45;&gt;input12 -->
<g id="edge5" class="edge">
<title>input01&#45;&gt;input12</title>
<path fill="none" stroke="#000000" d="M183.6485,-95.0863C198.4168,-101.6361 216.9066,-109.8364 233.0999,-117.0182"/>
<polygon fill="#000000" stroke="#000000" points="231.7632,-120.2541 242.3235,-121.1089 234.6012,-113.8552 231.7632,-120.2541"/>
</g>
<!-- input13 -->
<g id="node10" class="node">
<title>input13</title>
<ellipse fill="none" stroke="#000000" cx="271.3899" cy="-18" rx="41.6928" ry="18"/>
<text text-anchor="start" x="247.3899" y="-14.3" font-family="Times-Roman" font-size="14.00" fill="#000000">tanh(Σ)</text>
</g>
<!-- input01&#45;&gt;input13 -->
<g id="edge6" class="edge">
<title>input01&#45;&gt;input13</title>
<path fill="none" stroke="#000000" d="M180.5031,-69.3739C196.7671,-60.1806 218.486,-47.904 236.6139,-37.6571"/>
<polygon fill="#000000" stroke="#000000" points="238.7352,-40.4786 245.7185,-32.5108 235.2907,-34.3847 238.7352,-40.4786"/>
</g>
<!-- input02&#45;&gt;input11 -->
<g id="edge7" class="edge">
<title>input02&#45;&gt;input11</title>
<path fill="none" stroke="#000000" d="M175.1283,-152.3623C193.8639,-136.7212 222.8787,-112.4987 244.1579,-94.7341"/>
<polygon fill="#000000" stroke="#000000" points="246.4635,-97.3687 251.8971,-88.2732 241.9775,-91.9951 246.4635,-97.3687"/>
</g>
<!-- input02&#45;&gt;input12 -->
<g id="edge8" class="edge">
<title>input02&#45;&gt;input12</title>
<path fill="none" stroke="#000000" d="M187.8191,-158.7094C199.9011,-155.1371 213.9319,-150.9886 227.007,-147.1227"/>
<polygon fill="#000000" stroke="#000000" points="228.174,-150.4275 236.7712,-144.2357 226.1892,-143.7148 228.174,-150.4275"/>
</g>
<!-- input02&#45;&gt;input13 -->
<g id="edge9" class="edge">
<title>input02&#45;&gt;input13</title>
<path fill="none" stroke="#000000" d="M169.3644,-151.0847C189.4444,-124.8918 228.1943,-74.3454 251.7306,-43.6441"/>
<polygon fill="#000000" stroke="#000000" points="254.631,-45.6134 257.9374,-35.5477 249.0756,-41.3545 254.631,-45.6134"/>
</g>
<!-- input03&#45;&gt;input11 -->
<g id="edge10" class="edge">
<title>input03&#45;&gt;input11</title>
<path fill="none" stroke="#000000" d="M185.7119,-39.962C199.2491,-45.024 215.5552,-51.1215 230.2927,-56.6323"/>
<polygon fill="#000000" stroke="#000000" points="229.1135,-59.928 239.7059,-60.1523 231.5653,-53.3714 229.1135,-59.928"/>
</g>
<!-- input03&#45;&gt;input12 -->
<g id="edge11" class="edge">
<title>input03&#45;&gt;input12</title>
<path fill="none" stroke="#000000" d="M173.8617,-44.9472C192.9994,-62.4218 223.8836,-90.6221 245.7649,-110.6019"/>
<polygon fill="#000000" stroke="#000000" points="243.636,-113.3976 253.3807,-117.5559 248.3561,-108.2283 243.636,-113.3976"/>
</g>
<!-- input03&#45;&gt;input13 -->
<g id="edge12" class="edge">
<title>input03&#45;&gt;input13</title>
<path fill="none" stroke="#000000" d="M192.151,-25.5798C201.0598,-24.7276 210.7854,-23.7973 220.2762,-22.8894"/>
<polygon fill="#000000" stroke="#000000" points="220.8114,-26.3543 230.4327,-21.9179 220.1448,-19.3861 220.8114,-26.3543"/>
</g>
<!-- output -->
<g id="node11" class="node">
<title>output</title>
<ellipse fill="none" stroke="#000000" cx="391.5825" cy="-72" rx="41.6928" ry="18"/>
<text text-anchor="start" x="367.5825" y="-68.3" font-family="Times-Roman" font-size="14.00" fill="#000000">tanh(Σ)</text>
</g>
<!-- input11&#45;&gt;output -->
<g id="edge13" class="edge">
<title>input11&#45;&gt;output</title>
<path fill="none" stroke="#000000" d="M313.0901,-72C321.667,-72 330.7972,-72 339.6837,-72"/>
<polygon fill="#000000" stroke="#000000" points="339.956,-75.5001 349.956,-72 339.9559,-68.5001 339.956,-75.5001"/>
</g>
<!-- input12&#45;&gt;output -->
<g id="edge14" class="edge">
<title>input12&#45;&gt;output</title>
<path fill="none" stroke="#000000" d="M298.3634,-120.086C315.2972,-111.3509 337.3336,-99.9837 355.7291,-90.4945"/>
<polygon fill="#000000" stroke="#000000" points="357.4162,-93.5626 364.6989,-85.8676 354.2071,-87.3415 357.4162,-93.5626"/>
</g>
<!-- input13&#45;&gt;output -->
<g id="edge15" class="edge">
<title>input13&#45;&gt;output</title>
<path fill="none" stroke="#000000" d="M300.4851,-31.0719C316.3125,-38.1828 336.0904,-47.0686 353.1698,-54.742"/>
<polygon fill="#000000" stroke="#000000" points="351.7825,-57.9557 362.3385,-58.8613 354.6512,-51.5705 351.7825,-57.9557"/>
</g>
<!-- output&#45;&gt;finalout -->
<g id="edge16" class="edge">
<title>output&#45;&gt;finalout</title>
<path fill="none" stroke="#000000" d="M433.3623,-72C449.0704,-72 466.8083,-72 482.0634,-72"/>
<polygon fill="#000000" stroke="#000000" points="482.1725,-75.5001 492.1725,-72 482.1725,-68.5001 482.1725,-75.5001"/>
<text text-anchor="start" x="451.1788" y="-76.8" font-family="Times-Roman" font-size="14.00" fill="#000000">y</text>
<text text-anchor="start" x="458.1788" y="-76.8" font-family="Times-Roman" baseline-shift="super" font-size="14.00" fill="#000000">(α)</text>
</g>
</g>
</svg>
